# xmcd CD database file
#
# Track frame offsets:
#	150
#	15900
#	38065
#	60175
#
# Disc length: 1155 seconds
#
# Revision: 7
# Processed by: cddbd v1.5PL3 Copyright (c) Steve Scherf et al.
# Submitted via: CDex 1.50beta9
#
DISCID=1d048104
DTITLE=今井美樹 - THANK YOU disk3
DYEAR=1996
DGENRE=JPop
TTITLE0=とっておきの朝を(retake from "Bewith")
TTITLE1=ふたりでスプラシュ(retake from "ellfin")
TTITLE2=泣きたかった(retake from "retour")
TTITLE3=２０才の頃
EXTD=YEAR: 1996
EXTT0=
EXTT1=
EXTT2=
EXTT3=
PLAYORDER=
